<?xml version="1.0" encoding="utf-8"?>
<!-- Generator: Adobe Illustrator 19.0.0, SVG Export Plug-In . SVG Version: 6.00 Build 0)  -->
<svg version="1.1" id="CMYK" xmlns="http://www.w3.org/2000/svg" xmlns:xlink="http://www.w3.org/1999/xlink" x="0px" y="0px"
	 width="308.6px" height="70.9px" viewBox="-151 361.1 308.6 70.9" style="enable-background:new -151 361.1 308.6 70.9;"
	 xml:space="preserve">
<style type="text/css">
	.st0{fill:#FBB22E;}
	.st1{fill:#EE404F;}
	.st2{fill:#9D1C32;}
	.st3{fill:#B5782B;}
	.st4{fill:#231F20;}
</style>
<g id="XMLID_28_">
	<g id="XMLID_52_">
		<g id="XMLID_53_">
			<g id="XMLID_88_">
				<rect id="XMLID_187_" x="-113.7" y="360.8" class="st0" width="4.2" height="4.2"/>
				<rect id="XMLID_186_" x="-121.1" y="360.8" class="st1" width="4.2" height="4.2"/>
				<rect id="XMLID_185_" x="-113.7" y="368.3" class="st1" width="4.2" height="4.2"/>
				<rect id="XMLID_184_" x="-121.1" y="368.3" class="st2" width="4.2" height="4.2"/>
				<rect id="XMLID_183_" x="-98.9" y="375.7" class="st0" width="4.2" height="4.2"/>
				<rect id="XMLID_182_" x="-106.3" y="383.1" class="st3" width="4.2" height="4.2"/>
				<rect id="XMLID_181_" x="-106.3" y="375.7" class="st1" width="4.2" height="4.2"/>
				<rect id="XMLID_180_" x="-98.9" y="368.3" class="st1" width="4.2" height="4.2"/>
				<rect id="XMLID_179_" x="-106.3" y="368.3" class="st2" width="4.2" height="4.2"/>
				<rect id="XMLID_178_" x="-84" y="375.7" class="st0" width="4.2" height="4.2"/>
				<rect id="XMLID_177_" x="-69.2" y="375.7" class="st3" width="4.2" height="4.2"/>
				<rect id="XMLID_176_" x="-91.4" y="375.7" class="st1" width="4.2" height="4.2"/>
				<rect id="XMLID_175_" x="-84" y="368.3" class="st1" width="4.2" height="4.2"/>
				<rect id="XMLID_174_" x="-106.3" y="360.8" class="st2" width="4.2" height="4.2"/>
				<rect id="XMLID_173_" x="-113.7" y="375.7" class="st0" width="4.2" height="4.2"/>
				<rect id="XMLID_172_" x="-128.5" y="368.3" class="st0" width="4.2" height="4.2"/>
				<rect id="XMLID_171_" x="-121.1" y="375.7" class="st1" width="4.2" height="4.2"/>
				<rect id="XMLID_170_" x="-113.7" y="383.1" class="st3" width="4.2" height="4.2"/>
				<rect id="XMLID_169_" x="-128.5" y="375.7" class="st3" width="4.2" height="4.2"/>
				<rect id="XMLID_168_" x="-121.1" y="383.1" class="st2" width="4.2" height="4.2"/>
				<rect id="XMLID_167_" x="-98.9" y="390.6" class="st3" width="4.2" height="4.2"/>
				<rect id="XMLID_166_" x="-106.3" y="390.6" class="st1" width="4.2" height="4.2"/>
				<rect id="XMLID_165_" x="-98.9" y="383.1" class="st1" width="4.2" height="4.2"/>
				<rect id="XMLID_164_" x="-106.3" y="427.8" class="st3" width="4.2" height="4.2"/>
				<rect id="XMLID_163_" x="-113.7" y="427.8" class="st3" width="4.2" height="4.2"/>
				<rect id="XMLID_162_" x="-98.9" y="427.8" class="st1" width="4.2" height="4.2"/>
				<rect id="XMLID_161_" x="-91.4" y="420.3" class="st1" width="4.2" height="4.2"/>
				<rect id="XMLID_160_" x="-113.7" y="390.6" class="st0" width="4.2" height="4.2"/>
				<rect id="XMLID_159_" x="-113.7" y="420.4" class="st0" width="4.2" height="4.2"/>
				<rect id="XMLID_158_" x="-121.1" y="390.6" class="st1" width="4.2" height="4.2"/>
				<rect id="XMLID_157_" x="-113.7" y="398" class="st3" width="4.2" height="4.2"/>
				<rect id="XMLID_156_" x="-121.1" y="398" class="st2" width="4.2" height="4.2"/>
				<rect id="XMLID_155_" x="-98.9" y="405.4" class="st0" width="4.2" height="4.2"/>
				<rect id="XMLID_154_" x="-106.3" y="412.9" class="st3" width="4.2" height="4.2"/>
				<rect id="XMLID_153_" x="-106.3" y="405.4" class="st1" width="4.2" height="4.2"/>
				<rect id="XMLID_152_" x="-98.9" y="398" class="st1" width="4.2" height="4.2"/>
				<rect id="XMLID_151_" x="-106.3" y="398" class="st2" width="4.2" height="4.2"/>
				<rect id="XMLID_150_" x="-113.7" y="405.4" class="st0" width="4.2" height="4.2"/>
				<rect id="XMLID_149_" x="-121.1" y="405.4" class="st3" width="4.2" height="4.2"/>
				<rect id="XMLID_148_" x="-135.9" y="383.1" class="st3" width="4.2" height="4.2"/>
				<rect id="XMLID_147_" x="-128.5" y="390.6" class="st0" width="4.2" height="4.2"/>
				<rect id="XMLID_146_" x="-121.1" y="420.3" class="st1" width="4.2" height="4.2"/>
				<rect id="XMLID_145_" x="-135.9" y="390.6" class="st1" width="4.2" height="4.2"/>
				<rect id="XMLID_144_" x="-128.5" y="383.1" class="st1" width="4.2" height="4.2"/>
				<rect id="XMLID_143_" x="-143.3" y="390.6" class="st0" width="4.2" height="4.2"/>
				<rect id="XMLID_142_" x="-150.7" y="390.6" class="st1" width="4.2" height="4.2"/>
				<rect id="XMLID_141_" x="-143.3" y="398" class="st1" width="4.2" height="4.2"/>
				<rect id="XMLID_140_" x="-150.7" y="398" class="st2" width="4.2" height="4.2"/>
				<rect id="XMLID_139_" x="-128.5" y="405.4" class="st0" width="4.2" height="4.2"/>
				<rect id="XMLID_138_" x="-135.9" y="405.4" class="st1" width="4.2" height="4.2"/>
				<rect id="XMLID_137_" x="-128.5" y="398" class="st1" width="4.2" height="4.2"/>
				<rect id="XMLID_136_" x="-128.5" y="412.9" class="st1" width="4.2" height="4.2"/>
				<rect id="XMLID_135_" x="-135.9" y="398" class="st3" width="4.2" height="4.2"/>
				<rect id="XMLID_134_" x="-143.3" y="412.9" class="st1" width="4.2" height="4.2"/>
				<rect id="XMLID_133_" x="-135.9" y="412.9" class="st2" width="4.2" height="4.2"/>
				<rect id="XMLID_132_" x="-143.3" y="405.4" class="st0" width="4.2" height="4.2"/>
				<rect id="XMLID_131_" x="-150.7" y="405.4" class="st1" width="4.2" height="4.2"/>
				<rect id="XMLID_130_" x="-76.6" y="368.3" class="st2" width="4.2" height="4.2"/>
				<rect id="XMLID_129_" x="-76.6" y="375.7" class="st1" width="4.2" height="4.2"/>
				<rect id="XMLID_128_" x="-76.6" y="412.9" class="st0" width="4.2" height="4.2"/>
				<rect id="XMLID_127_" x="-91.4" y="412.9" class="st3" width="4.2" height="4.2"/>
				<rect id="XMLID_126_" x="-76.6" y="420.3" class="st1" width="4.2" height="4.2"/>
				<rect id="XMLID_125_" x="-84" y="420.3" class="st2" width="4.2" height="4.2"/>
				<rect id="XMLID_124_" x="-84" y="412.9" class="st1" width="4.2" height="4.2"/>
				<rect id="XMLID_123_" x="-69.2" y="412.9" class="st1" width="4.2" height="4.2"/>
				<rect id="XMLID_122_" x="-47" y="390.6" class="st1" width="4.2" height="4.2"/>
				<rect id="XMLID_121_" x="-54.4" y="390.6" class="st0" width="4.2" height="4.2"/>
				<rect id="XMLID_120_" x="-61.8" y="390.6" class="st1" width="4.2" height="4.2"/>
				<rect id="XMLID_119_" x="-54.4" y="398" class="st1" width="4.2" height="4.2"/>
				<rect id="XMLID_118_" x="-61.8" y="398" class="st2" width="4.2" height="4.2"/>
				<rect id="XMLID_117_" x="-91.4" y="405.4" class="st1" width="4.2" height="4.2"/>
				<rect id="XMLID_116_" x="-47" y="398" class="st2" width="4.2" height="4.2"/>
				<rect id="XMLID_115_" x="-84" y="405.4" class="st0" width="4.2" height="4.2"/>
				<rect id="XMLID_114_" x="-76.6" y="405.4" class="st1" width="4.2" height="4.2"/>
				<rect id="XMLID_113_" x="-69.2" y="390.6" class="st0" width="4.2" height="4.2"/>
				<rect id="XMLID_112_" x="-76.6" y="390.6" class="st2" width="4.2" height="4.2"/>
				<rect id="XMLID_111_" x="-84" y="390.6" class="st0" width="4.2" height="4.2"/>
				<rect id="XMLID_110_" x="-91.4" y="390.6" class="st1" width="4.2" height="4.2"/>
				<rect id="XMLID_109_" x="-84" y="398" class="st2" width="4.2" height="4.2"/>
				<rect id="XMLID_108_" x="-91.4" y="398" class="st3" width="4.2" height="4.2"/>
				<rect id="XMLID_107_" x="-69.2" y="405.4" class="st0" width="4.2" height="4.2"/>
				<rect id="XMLID_106_" x="-61.8" y="405.4" class="st1" width="4.2" height="4.2"/>
				<rect id="XMLID_105_" x="-69.2" y="398" class="st1" width="4.2" height="4.2"/>
				<rect id="XMLID_104_" x="-76.6" y="398" class="st3" width="4.2" height="4.2"/>
				<rect id="XMLID_103_" x="-54.4" y="405.4" class="st0" width="4.2" height="4.2"/>
				<rect id="XMLID_102_" x="-47" y="405.4" class="st1" width="4.2" height="4.2"/>
				<rect id="XMLID_101_" x="-91.4" y="383.1" class="st0" width="4.2" height="4.2"/>
				<rect id="XMLID_100_" x="-84" y="383.1" class="st1" width="4.2" height="4.2"/>
				<rect id="XMLID_99_" x="-76.6" y="383.1" class="st0" width="4.2" height="4.2"/>
				<rect id="XMLID_98_" x="-69.2" y="383.1" class="st1" width="4.2" height="4.2"/>
				<rect id="XMLID_97_" x="-61.8" y="383.1" class="st0" width="4.2" height="4.2"/>
				<rect id="XMLID_96_" x="-54.4" y="383.1" class="st1" width="4.2" height="4.2"/>
				<rect id="XMLID_95_" x="-61.8" y="412.9" class="st1" width="4.2" height="4.2"/>
				<rect id="XMLID_94_" x="-54.4" y="412.9" class="st0" width="4.2" height="4.2"/>
				<rect id="XMLID_93_" x="-113.7" y="412.9" class="st3" width="4.2" height="4.2"/>
				<rect id="XMLID_92_" x="-121.1" y="412.9" class="st2" width="4.2" height="4.2"/>
				<rect id="XMLID_91_" x="-98.9" y="420.3" class="st3" width="4.2" height="4.2"/>
				<rect id="XMLID_90_" x="-106.3" y="420.3" class="st1" width="4.2" height="4.2"/>
				<rect id="XMLID_89_" x="-98.9" y="412.9" class="st0" width="4.2" height="4.2"/>
			</g>
			<g id="XMLID_54_">
				<g id="XMLID_55_">
					<g id="XMLID_56_">
						<path id="XMLID_86_" class="st4" d="M-23.8,407.4v-8.9c0-2-1.3-2.7-2.4-2.7c-1.1,0-2.4,0.7-2.4,2.7v8.9h-3.6v-14.7h3.6v1.3
							c1-1,2.3-1.5,3.6-1.5c1.5,0,2.6,0.5,3.4,1.3c1.2,1.2,1.5,2.6,1.5,4.2v9.4H-23.8z"/>
						<path id="XMLID_84_" class="st4" d="M-8.1,407.4v-1.4c-1,1-2.3,1.5-3.6,1.5c-1.5,0-2.6-0.5-3.4-1.3c-1.2-1.2-1.5-2.6-1.5-4.2
							v-9.4h3.6v8.9c0,2,1.3,2.7,2.4,2.7c1.1,0,2.4-0.7,2.4-2.7v-8.9h3.6v14.7H-8.1z"/>
						<path id="XMLID_81_" class="st4" d="M6.7,407.4v-1.3c-1,1-1.9,1.4-3.6,1.4c-1.7,0-2.9-0.4-3.7-1.3c-0.8-0.8-1.2-2-1.2-3.3
							c0-2.3,1.6-4.2,5-4.2h3.4V398c0-1.6-0.8-2.3-2.7-2.3c-1.4,0-2,0.3-2.8,1.2l-2.3-2.3c1.4-1.6,2.8-2,5.3-2
							c4.1,0,6.2,1.7,6.2,5.2v9.6H6.7z M6.6,401.3H3.8c-1.3,0-2,0.6-2,1.7c0,1,0.7,1.7,2.1,1.7c1,0,1.7-0.1,2.3-0.7
							c0.4-0.4,0.5-1,0.5-1.9V401.3z"/>
						<path id="XMLID_78_" class="st4" d="M19,413c-2.2,0-3.8-0.5-5.3-1.9l2.3-2.3c0.8,0.8,1.6,1.1,2.9,1.1c2.2,0,2.9-1.5,2.9-3
							v-1.5c-1,1.1-2,1.5-3.5,1.5c-1.4,0-2.7-0.5-3.5-1.3c-1.4-1.4-1.5-3.3-1.5-5.8c0-2.6,0.1-4.4,1.5-5.8c0.8-0.8,2.1-1.3,3.5-1.3
							c1.5,0,2.5,0.4,3.6,1.5v-1.4h3.5v14.1C25.4,410.4,22.9,413,19,413z M19.3,395.9c-2.2,0-2.4,1.9-2.4,3.8c0,1.9,0.2,3.8,2.4,3.8
							c2.2,0,2.4-1.9,2.4-3.8C21.7,397.8,21.5,395.9,19.3,395.9z"/>
						<path id="XMLID_75_" class="st4" d="M32,401.3c0,1.9,1.1,3.3,3.2,3.3c1.6,0,2.4-0.4,3.3-1.4l2.2,2.2c-1.5,1.5-2.9,2.3-5.5,2.3
							c-3.4,0-6.8-1.6-6.8-7.5c0-4.8,2.6-7.5,6.4-7.5c4.1,0,6.4,3,6.4,7v1.6H32z M37.3,397.2c-0.4-0.9-1.2-1.5-2.4-1.5
							c-1.2,0-2,0.6-2.4,1.5c-0.2,0.5-0.3,0.9-0.3,1.6h5.5C37.6,398.1,37.5,397.7,37.3,397.2z"/>
						<path id="XMLID_73_" class="st4" d="M54.3,407.2v-8.7c0-2.5-1.4-3.8-3.5-3.8c-2.1,0-3.5,1.3-3.5,3.8v8.7h-2.1V393h2.1v1.6
							c1-1.2,2.4-1.7,4-1.7c1.5,0,2.8,0.5,3.6,1.3c1,1,1.5,2.3,1.5,4v9.1H54.3z"/>
						<path id="XMLID_70_" class="st4" d="M62.1,400.6c0,3.1,1.5,4.9,4.2,4.9c1.6,0,2.6-0.5,3.7-1.6l1.4,1.2
							c-1.4,1.4-2.8,2.2-5.2,2.2c-3.7,0-6.2-2.3-6.2-7.3c0-4.6,2.2-7.3,5.8-7.3c3.6,0,5.8,2.7,5.8,6.9v1H62.1z M69.1,396.7
							c-0.5-1.3-1.8-2.1-3.3-2.1c-1.5,0-2.8,0.8-3.3,2.1c-0.3,0.8-0.4,1.2-0.4,2.4h7.5C69.5,397.9,69.4,397.5,69.1,396.7z"/>
						<path id="XMLID_68_" class="st4" d="M79.7,407.2c-2.4,0-3.6-1.7-3.6-3.8v-8.7h-1.8v-1.6H76v-4.4h2.1v4.4h3v1.6h-3v8.7
							c0,1.3,0.6,2.1,1.9,2.1h1.1v1.8H79.7z"/>
						<path id="XMLID_66_" class="st4" d="M98.4,407.2h-1.9l-3.7-11l-3.7,11h-1.9L82.7,393h2.2l3.2,11.4l3.7-11.4h1.8l3.7,11.4
							l3.2-11.4h2.2L98.4,407.2z"/>
						<path id="XMLID_63_" class="st4" d="M114.4,405.7c-1,1-2.3,1.6-4,1.6c-1.7,0-3.1-0.6-4.1-1.6c-1.4-1.5-1.7-3.5-1.7-5.7
							c0-2.2,0.3-4.2,1.7-5.7c1-1,2.3-1.6,4.1-1.6c1.7,0,3.1,0.6,4,1.6c1.4,1.5,1.7,3.5,1.7,5.7
							C116.1,402.3,115.8,404.3,114.4,405.7z M112.9,395.7c-0.7-0.7-1.6-1-2.6-1c-1,0-1.9,0.4-2.6,1c-1,1-1.1,2.8-1.1,4.4
							c0,1.6,0.1,3.3,1.1,4.4c0.7,0.7,1.6,1,2.6,1c1,0,1.9-0.4,2.6-1c1-1,1.1-2.8,1.1-4.4C114,398.5,114,396.7,112.9,395.7z"/>
						<path id="XMLID_61_" class="st4" d="M128.1,395.7c-0.8-0.8-1.4-1-2.4-1c-2.1,0-3.4,1.6-3.4,3.8v8.7h-2.1V393h2.1v1.7
							c0.8-1.2,2.3-1.9,4-1.9c1.3,0,2.4,0.3,3.4,1.3L128.1,395.7z"/>
						<path id="XMLID_59_" class="st4" d="M141.4,407.2l-4.5-7.3l-2.8,3.2v4.1h-2.1v-20.5h2.1v13.7l6.4-7.4h2.6l-4.8,5.4l5.6,8.8
							H141.4z"/>
						<path id="XMLID_57_" class="st4" d="M151.6,407.3c-2.4,0-4.2-0.6-5.8-2l1.4-1.4c1.1,1.2,2.6,1.6,4.4,1.6
							c2.3,0,3.8-0.8,3.8-2.5c0-1.2-0.7-1.9-2.4-2.1l-2.3-0.2c-2.8-0.2-4.2-1.5-4.2-3.8c0-2.6,2.2-4.2,5.2-4.2c2,0,3.8,0.5,5.1,1.5
							l-1.4,1.4c-1-0.8-2.3-1.1-3.8-1.1c-2.1,0-3.2,0.9-3.2,2.3c0,1.2,0.7,1.9,2.5,2.1l2.3,0.2c2.5,0.2,4.2,1.2,4.2,3.8
							C157.4,405.8,155,407.3,151.6,407.3z"/>
					</g>
				</g>
			</g>
		</g>
	</g>
	<g id="XMLID_29_">
		<path id="XMLID_50_" class="st4" d="M-32.3,420.3h4.7v0.7h-3.9v3h3.2v0.7h-3.2v4h-0.8V420.3z"/>
		<path id="XMLID_48_" class="st4" d="M-23.8,422.7c0.1,0,0.2,0,0.3,0c0.1,0,0.2,0,0.2,0l-0.1,0.6c-0.1,0-0.1,0-0.2,0
			c-0.1,0-0.2,0-0.3,0c-0.3,0-0.6,0.1-0.8,0.2c-0.2,0.1-0.5,0.3-0.6,0.5c-0.2,0.2-0.3,0.5-0.4,0.8c-0.1,0.3-0.2,0.7-0.2,1.1v2.7
			h-0.7v-6h0.7l0,1.4c0.1-0.2,0.2-0.4,0.3-0.6c0.1-0.2,0.3-0.3,0.5-0.5c0.2-0.1,0.4-0.2,0.6-0.3C-24.3,422.8-24.1,422.7-23.8,422.7z
			"/>
		<path id="XMLID_45_" class="st4" d="M-19.9,422.6c0.5,0,0.9,0.1,1.2,0.2c0.3,0.2,0.6,0.4,0.9,0.6c0.2,0.3,0.4,0.6,0.5,1
			c0.1,0.4,0.2,0.8,0.2,1.3s-0.1,0.9-0.2,1.3c-0.1,0.4-0.3,0.7-0.5,1c-0.2,0.3-0.5,0.5-0.9,0.6c-0.3,0.2-0.7,0.2-1.2,0.2
			c-0.4,0-0.8-0.1-1.2-0.2c-0.3-0.2-0.6-0.4-0.9-0.6c-0.2-0.3-0.4-0.6-0.5-1c-0.1-0.4-0.2-0.8-0.2-1.3s0.1-0.9,0.2-1.3
			c0.1-0.4,0.3-0.7,0.5-1c0.2-0.3,0.5-0.5,0.9-0.6C-20.8,422.7-20.4,422.6-19.9,422.6z M-19.9,428.2c0.7,0,1.2-0.2,1.5-0.7
			c0.3-0.4,0.5-1,0.5-1.8c0-0.7-0.2-1.3-0.5-1.8c-0.3-0.5-0.8-0.7-1.5-0.7c-0.7,0-1.2,0.2-1.5,0.7c-0.3,0.5-0.5,1.1-0.5,1.8
			c0,0.8,0.2,1.4,0.5,1.8C-21.1,428-20.6,428.2-19.9,428.2z"/>
		<path id="XMLID_43_" class="st4" d="M-9.4,423.3c-0.3,0-0.5,0.1-0.8,0.2c-0.2,0.1-0.4,0.3-0.6,0.5c-0.2,0.2-0.3,0.5-0.4,0.7
			c-0.1,0.3-0.1,0.5-0.1,0.8v3.2h-0.7v-3.8c0-0.6-0.1-1.1-0.3-1.3c-0.2-0.2-0.6-0.4-1-0.4c-0.3,0-0.5,0.1-0.8,0.2
			c-0.2,0.1-0.4,0.3-0.6,0.6s-0.3,0.5-0.4,0.8c-0.1,0.3-0.1,0.6-0.1,0.9v3.1h-0.7v-6h0.7l0,1.2c0.2-0.4,0.4-0.7,0.8-1
			c0.3-0.3,0.8-0.4,1.3-0.4c0.4,0,0.8,0.1,1.1,0.3c0.3,0.2,0.5,0.6,0.6,1.1c0.2-0.4,0.5-0.7,0.8-1c0.4-0.3,0.8-0.4,1.3-0.4
			c0.6,0,1.1,0.2,1.4,0.6c0.3,0.4,0.5,0.9,0.5,1.7v3.9H-8v-3.8c0-0.6-0.1-1.1-0.3-1.3C-8.6,423.4-8.9,423.3-9.4,423.3z"/>
		<path id="XMLID_41_" class="st4" d="M-0.8,421.5v7.2h-0.7v-8.4h0.8l4.2,7.2v-7.2h0.7v8.4H3.4L-0.8,421.5z"/>
		<path id="XMLID_38_" class="st4" d="M8.3,422.6c0.5,0,0.9,0.1,1.2,0.2c0.3,0.2,0.6,0.4,0.9,0.6c0.2,0.3,0.4,0.6,0.5,1
			c0.1,0.4,0.2,0.8,0.2,1.3s-0.1,0.9-0.2,1.3c-0.1,0.4-0.3,0.7-0.5,1c-0.2,0.3-0.5,0.5-0.9,0.6c-0.3,0.2-0.7,0.2-1.2,0.2
			c-0.4,0-0.8-0.1-1.2-0.2c-0.3-0.2-0.6-0.4-0.9-0.6c-0.2-0.3-0.4-0.6-0.5-1c-0.1-0.4-0.2-0.8-0.2-1.3s0.1-0.9,0.2-1.3
			c0.1-0.4,0.3-0.7,0.5-1c0.2-0.3,0.5-0.5,0.9-0.6C7.5,422.7,7.9,422.6,8.3,422.6z M8.3,428.2c0.7,0,1.2-0.2,1.5-0.7
			c0.3-0.4,0.5-1,0.5-1.8c0-0.7-0.2-1.3-0.5-1.8c-0.3-0.5-0.8-0.7-1.5-0.7c-0.7,0-1.2,0.2-1.5,0.7c-0.3,0.5-0.5,1.1-0.5,1.8
			c0,0.8,0.2,1.4,0.5,1.8C7.2,428,7.7,428.2,8.3,428.2z"/>
		<path id="XMLID_36_" class="st4" d="M13.3,425.5l2.5-2.7h0.9l-2.6,2.7l2.8,3.3H16L13.3,425.5v3.3h-0.7v-9h0.7V425.5z"/>
		<path id="XMLID_33_" class="st4" d="M18.2,420.8c0-0.2,0-0.3,0.1-0.4c0.1-0.1,0.2-0.2,0.4-0.2s0.3,0.1,0.4,0.2
			c0.1,0.1,0.2,0.3,0.2,0.4c0,0.2-0.1,0.3-0.2,0.4c-0.1,0.1-0.2,0.2-0.4,0.2s-0.3-0.1-0.4-0.2C18.3,421.1,18.2,421,18.2,420.8z
			 M18.4,422.8h0.7v6h-0.7V422.8z"/>
		<path id="XMLID_30_" class="st4" d="M22.6,428.9c-0.2,0-0.4,0-0.6-0.1c-0.2-0.1-0.4-0.2-0.6-0.3c-0.2-0.1-0.3-0.3-0.4-0.6
			c-0.1-0.2-0.2-0.5-0.2-0.9c0-0.6,0.2-1,0.6-1.4s0.9-0.5,1.7-0.5c0.2,0,0.4,0,0.5,0c0.2,0,0.4,0,0.5,0c0.2,0,0.3,0,0.4,0.1
			c0.1,0,0.2,0,0.3,0v-0.6c0-0.5-0.1-0.9-0.4-1.1c-0.3-0.2-0.7-0.3-1.3-0.3c-0.4,0-0.7,0-1,0.1c-0.3,0.1-0.5,0.2-0.6,0.3l-0.2-0.5
			c0.2-0.1,0.4-0.2,0.7-0.3c0.3-0.1,0.8-0.2,1.3-0.2c0.7,0,1.2,0.2,1.6,0.5c0.4,0.3,0.6,0.8,0.6,1.5v4.1h-0.6l0-0.9
			c-0.1,0.2-0.3,0.4-0.4,0.5s-0.3,0.2-0.5,0.3c-0.2,0.1-0.4,0.1-0.6,0.2C23,428.9,22.8,428.9,22.6,428.9z M24.7,425.9
			c-0.1,0-0.2,0-0.3-0.1c-0.1,0-0.3,0-0.4-0.1c-0.2,0-0.3,0-0.5,0c-0.2,0-0.3,0-0.5,0c-0.6,0-1,0.1-1.2,0.4c-0.2,0.2-0.4,0.6-0.4,1
			c0,0.4,0.1,0.7,0.4,0.9c0.3,0.2,0.6,0.3,1,0.3c0.2,0,0.5,0,0.7-0.1c0.2-0.1,0.4-0.2,0.6-0.4c0.2-0.1,0.3-0.3,0.4-0.5
			c0.1-0.2,0.2-0.4,0.2-0.6V425.9z"/>
	</g>
</g>
</svg>
